<svg width="67" height="47" viewBox="0 0 67 47" fill="none" xmlns="http://www.w3.org/2000/svg">
<path d="M43.1994 47H40.8173C40.6764 47 40.5416 46.9405 40.4451 46.8355C40.3486 46.73 40.2986 46.5885 40.3078 46.4449C41.0598 34.3664 44.2796 26.7539 52.3132 18.7754C46.1936 22.3281 40.2358 28.5833 39.2127 37.1822C39.1867 37.4015 39.0284 37.5806 38.8176 37.6282C38.6062 37.6773 38.3887 37.5833 38.2739 37.3968C33.7772 30.0752 33.9319 23.4472 38.7599 16.5371C41.5443 12.7395 45.5396 10.6469 49.0647 8.80036C53.3255 6.5689 57.0054 4.64137 57.7936 0.423887C57.8334 0.211342 57.9968 0.0463192 58.2056 0.00819689C58.4134 -0.0299255 58.6232 0.0672082 58.7325 0.252075C64.2737 9.64009 68.8398 18.9623 63.9188 29.7797C59.9909 36.9613 53.4741 40.2826 44.5221 39.681C44.0065 41.9391 43.7405 44.1695 43.7104 46.4846C43.7063 46.7707 43.4786 47 43.1994 47Z" fill="#00991A"/>
<path d="M3.432 21.216C3.112 21.216 2.752 21.184 2.352 21.12C1.968 21.056 1.6 20.976 1.248 20.88C0.912 20.784 0.648 20.68 0.456 20.568C0.344 20.504 0.256 20.44 0.192 20.376C0.144 20.296 0.12 20.168 0.12 19.992L0 16.224C0 15.904 0.104 15.744 0.312 15.744C0.488 15.744 0.608 15.888 0.672 16.176L0.888 17.088C1.432 19.376 2.448 20.52 3.936 20.52C4.736 20.52 5.368 20.256 5.832 19.728C6.312 19.184 6.552 18.424 6.552 17.448C6.552 16.504 6.304 15.624 5.808 14.808C5.328 13.992 4.552 13.184 3.48 12.384C2.296 11.536 1.432 10.72 0.888 9.936C0.344 9.136 0.0720001 8.288 0.0720001 7.392C0.0720001 6.208 0.48 5.264 1.296 4.56C2.128 3.84 3.184 3.48 4.464 3.48C4.944 3.48 5.408 3.536 5.856 3.648C6.304 3.76 6.672 3.92 6.96 4.128C7.056 4.192 7.128 4.264 7.176 4.344C7.24 4.424 7.272 4.528 7.272 4.656L7.344 8.28C7.344 8.552 7.24 8.688 7.032 8.688C6.888 8.688 6.784 8.576 6.72 8.352L6.552 7.752C6.2 6.52 5.832 5.624 5.448 5.064C5.08 4.488 4.544 4.2 3.84 4.2C3.152 4.2 2.6 4.424 2.184 4.872C1.784 5.32 1.584 5.952 1.584 6.768C1.584 7.456 1.808 8.112 2.256 8.736C2.704 9.36 3.488 10.12 4.608 11.016C5.808 11.992 6.68 12.936 7.224 13.848C7.784 14.744 8.064 15.704 8.064 16.728C8.064 17.624 7.864 18.408 7.464 19.08C7.064 19.752 6.512 20.28 5.808 20.664C5.12 21.032 4.328 21.216 3.432 21.216Z" fill="black"/>
<path d="M12.3174 21.216C11.7574 21.216 11.2934 21.024 10.9254 20.64C10.5734 20.24 10.3974 19.592 10.3974 18.696V9.72C10.3974 9.528 10.3014 9.432 10.1094 9.432H9.41344C9.15744 9.432 9.02944 9.336 9.02944 9.144C9.02944 9.016 9.10144 8.904 9.24544 8.808C9.77344 8.44 10.1974 8.048 10.5174 7.632C10.8374 7.2 11.1174 6.616 11.3574 5.88C11.4694 5.544 11.6054 5.376 11.7654 5.376C11.9414 5.376 12.0294 5.504 12.0294 5.76V8.424C12.0294 8.648 12.1414 8.76 12.3654 8.76H13.9254C14.1814 8.76 14.3094 8.872 14.3094 9.096C14.3094 9.32 14.1814 9.432 13.9254 9.432H12.3654C12.1414 9.432 12.0294 9.544 12.0294 9.768V18.72C12.0294 19.072 12.0854 19.352 12.1974 19.56C12.3094 19.752 12.5174 19.848 12.8214 19.848C13.1574 19.848 13.4294 19.68 13.6374 19.344C13.8614 19.008 14.0054 18.464 14.0694 17.712C14.1014 17.488 14.2054 17.376 14.3814 17.376C14.5734 17.376 14.6694 17.496 14.6694 17.736C14.6214 18.968 14.3654 19.856 13.9014 20.4C13.4534 20.944 12.9254 21.216 12.3174 21.216Z" fill="black"/>
<path d="M17.8804 21.216C17.2084 21.216 16.6564 21.008 16.2244 20.592C15.7924 20.16 15.5764 19.592 15.5764 18.888C15.5764 18.2 15.7924 17.552 16.2244 16.944C16.6564 16.32 17.2484 15.76 18.0004 15.264C18.7524 14.768 19.6084 14.368 20.5684 14.064C20.7764 14 20.8804 13.864 20.8804 13.656V11.472C20.8804 10.704 20.7604 10.16 20.5204 9.84C20.2804 9.504 19.9524 9.336 19.5364 9.336C19.1364 9.336 18.7684 9.52 18.4324 9.888C18.1124 10.24 17.8804 10.84 17.7364 11.688C17.6564 12.2 17.4804 12.576 17.2084 12.816C16.9524 13.04 16.6884 13.152 16.4164 13.152C15.9684 13.152 15.7444 12.928 15.7444 12.48C15.7444 12.016 15.8724 11.56 16.1284 11.112C16.4004 10.648 16.7524 10.232 17.1844 9.864C17.6164 9.48 18.0884 9.176 18.6004 8.952C19.1124 8.728 19.6244 8.616 20.1364 8.616C21.7204 8.616 22.5124 9.536 22.5124 11.376V18.72C22.5124 19.392 22.6804 19.728 23.0164 19.728C23.2244 19.728 23.4164 19.592 23.5924 19.32C23.7684 19.032 23.8564 18.552 23.8564 17.88C23.8564 17.624 23.9604 17.496 24.1684 17.496C24.3604 17.496 24.4564 17.632 24.4564 17.904C24.4564 19.072 24.2484 19.92 23.8324 20.448C23.4324 20.96 22.9764 21.216 22.4644 21.216C22.0804 21.216 21.7764 21.064 21.5524 20.76C21.3284 20.44 21.1764 20.064 21.0964 19.632C21.0804 19.472 21.0084 19.392 20.8804 19.392C20.7684 19.376 20.6564 19.448 20.5444 19.608C20.1604 20.136 19.7684 20.536 19.3684 20.808C18.9684 21.08 18.4724 21.216 17.8804 21.216ZM18.5284 20.112C18.9444 20.112 19.3284 19.968 19.6804 19.68C20.0324 19.376 20.3204 18.976 20.5444 18.48C20.7684 17.984 20.8804 17.424 20.8804 16.8V15.048C20.8804 14.744 20.7124 14.656 20.3764 14.784C19.4004 15.136 18.6404 15.624 18.0964 16.248C17.5684 16.856 17.3044 17.592 17.3044 18.456C17.3044 19.56 17.7124 20.112 18.5284 20.112Z" fill="black"/>
<path d="M28.2823 10.296C28.9383 9.176 29.7303 8.616 30.6583 8.616C31.1863 8.616 31.5783 8.776 31.8343 9.096C32.0903 9.4 32.2183 9.744 32.2183 10.128C32.2183 10.432 32.1383 10.68 31.9783 10.872C31.8343 11.064 31.6023 11.16 31.2823 11.16C31.0263 11.16 30.8343 11.104 30.7063 10.992C30.5943 10.864 30.4983 10.72 30.4183 10.56C30.3543 10.4 30.2743 10.264 30.1783 10.152C30.0823 10.024 29.9223 9.96 29.6983 9.96C29.4103 9.96 29.1383 10.136 28.8823 10.488C28.6263 10.824 28.4103 11.28 28.2343 11.856C28.0743 12.432 27.9943 13.088 27.9943 13.824V19.392C27.9943 19.728 28.0423 19.968 28.1383 20.112C28.2503 20.256 28.4743 20.344 28.8103 20.376L29.4583 20.448C29.6343 20.48 29.7223 20.568 29.7223 20.712C29.7223 20.904 29.6023 21 29.3623 21H25.3063C25.0663 21 24.9463 20.912 24.9463 20.736C24.9463 20.592 25.0503 20.496 25.2583 20.448L25.5463 20.4C25.8823 20.336 26.0983 20.24 26.1943 20.112C26.3063 19.968 26.3623 19.728 26.3623 19.392V11.328C26.3623 11.04 26.3143 10.848 26.2183 10.752C26.1383 10.64 25.9863 10.568 25.7623 10.536L25.2583 10.464C25.0503 10.448 24.9463 10.36 24.9463 10.2C24.9463 10.072 25.0743 9.984 25.3303 9.936C25.8263 9.856 26.2023 9.728 26.4583 9.552C26.7303 9.376 27.0103 9.16 27.2983 8.904C27.4423 8.76 27.5623 8.688 27.6583 8.688C27.8023 8.688 27.8743 8.784 27.8743 8.976V10.272C27.8743 10.384 27.9223 10.456 28.0183 10.488C28.1143 10.504 28.2023 10.44 28.2823 10.296Z" fill="black"/>
<path d="M32.8749 21C32.6829 21 32.5869 20.912 32.5869 20.736C32.5869 20.576 32.6749 20.48 32.8509 20.448L33.1869 20.4C33.5229 20.352 33.7389 20.256 33.8349 20.112C33.9469 19.968 34.0029 19.728 34.0029 19.392V5.64C34.0029 5.352 33.9549 5.16 33.8589 5.064C33.7789 4.952 33.6269 4.88 33.4029 4.848L32.8989 4.776C32.7229 4.744 32.6349 4.648 32.6349 4.488C32.6349 4.328 32.7229 4.232 32.8989 4.2C33.3469 4.104 33.7229 3.992 34.0269 3.864C34.3309 3.736 34.5869 3.608 34.7949 3.48C35.0509 3.32 35.2429 3.24 35.3709 3.24C35.5469 3.24 35.6349 3.368 35.6349 3.624V13.68C35.6349 13.84 35.6989 13.944 35.8269 13.992C35.9709 14.024 36.1069 13.968 36.2349 13.824L39.0429 10.8C39.3789 10.432 39.5149 10.128 39.4509 9.888C39.4029 9.632 39.2189 9.472 38.8989 9.408L38.3469 9.312C38.1389 9.264 38.0349 9.16 38.0349 9C38.0349 8.84 38.1469 8.76 38.3709 8.76H42.4989C42.7229 8.76 42.8349 8.848 42.8349 9.024C42.8349 9.2 42.7309 9.296 42.5229 9.312L42.3069 9.336C41.9389 9.368 41.5709 9.512 41.2029 9.768C40.8349 10.008 40.3949 10.392 39.8829 10.92L38.3949 12.504C38.0589 12.872 37.9789 13.232 38.1549 13.584L41.1789 19.392C41.3549 19.712 41.5469 19.944 41.7549 20.088C41.9629 20.232 42.2189 20.336 42.5229 20.4L42.7629 20.448C42.9549 20.496 43.0509 20.592 43.0509 20.736C43.0509 20.912 42.9389 21 42.7149 21H38.5389C38.3149 21 38.2029 20.912 38.2029 20.736C38.2029 20.576 38.3069 20.48 38.5149 20.448L38.9229 20.4C39.5309 20.32 39.6589 19.928 39.3069 19.224L37.0269 14.784C36.9469 14.624 36.8269 14.536 36.6669 14.52C36.5229 14.504 36.3869 14.56 36.2589 14.688L35.9949 14.952C35.8509 15.096 35.7549 15.24 35.7069 15.384C35.6589 15.528 35.6349 15.688 35.6349 15.864V19.392C35.6349 19.728 35.6829 19.968 35.7789 20.112C35.8909 20.256 36.1149 20.344 36.4509 20.376L37.0989 20.448C37.2749 20.48 37.3629 20.576 37.3629 20.736C37.3629 20.912 37.2669 21 37.0749 21H32.8749Z" fill="black"/>
<path d="M45.396 21.216C44.724 21.216 44.172 21.008 43.74 20.592C43.308 20.16 43.092 19.592 43.092 18.888C43.092 18.2 43.308 17.552 43.74 16.944C44.172 16.32 44.764 15.76 45.516 15.264C46.268 14.768 47.124 14.368 48.084 14.064C48.292 14 48.396 13.864 48.396 13.656V11.472C48.396 10.704 48.276 10.16 48.036 9.84C47.796 9.504 47.468 9.336 47.052 9.336C46.652 9.336 46.284 9.52 45.948 9.888C45.628 10.24 45.396 10.84 45.252 11.688C45.172 12.2 44.996 12.576 44.724 12.816C44.468 13.04 44.204 13.152 43.932 13.152C43.484 13.152 43.26 12.928 43.26 12.48C43.26 12.016 43.388 11.56 43.644 11.112C43.916 10.648 44.268 10.232 44.7 9.864C45.132 9.48 45.604 9.176 46.116 8.952C46.628 8.728 47.14 8.616 47.652 8.616C49.236 8.616 50.028 9.536 50.028 11.376V18.72C50.028 19.392 50.196 19.728 50.532 19.728C50.74 19.728 50.932 19.592 51.108 19.32C51.284 19.032 51.372 18.552 51.372 17.88C51.372 17.624 51.476 17.496 51.684 17.496C51.876 17.496 51.972 17.632 51.972 17.904C51.972 19.072 51.764 19.92 51.348 20.448C50.948 20.96 50.492 21.216 49.98 21.216C49.596 21.216 49.292 21.064 49.068 20.76C48.844 20.44 48.692 20.064 48.612 19.632C48.596 19.472 48.524 19.392 48.396 19.392C48.284 19.376 48.172 19.448 48.06 19.608C47.676 20.136 47.284 20.536 46.884 20.808C46.484 21.08 45.988 21.216 45.396 21.216ZM46.044 20.112C46.46 20.112 46.844 19.968 47.196 19.68C47.548 19.376 47.836 18.976 48.06 18.48C48.284 17.984 48.396 17.424 48.396 16.8V15.048C48.396 14.744 48.228 14.656 47.892 14.784C46.916 15.136 46.156 15.624 45.612 16.248C45.084 16.856 44.82 17.592 44.82 18.456C44.82 19.56 45.228 20.112 46.044 20.112Z" fill="black"/>
<path d="M11.816 43.216C10.424 43.216 9.536 42.304 9.152 40.48L8.6 37.816C8.424 36.952 8.224 36.296 8 35.848C7.792 35.4 7.496 35.096 7.112 34.936C6.744 34.776 6.232 34.696 5.576 34.696C5.352 34.696 5.176 34.76 5.048 34.888C4.92 35 4.856 35.144 4.856 35.32V41.32C4.856 41.656 4.92 41.888 5.048 42.016C5.176 42.128 5.464 42.224 5.912 42.304L6.8 42.448C6.976 42.48 7.064 42.568 7.064 42.712C7.064 42.904 6.944 43 6.704 43H1.832C1.592 43 1.472 42.912 1.472 42.736C1.472 42.592 1.576 42.496 1.784 42.448L2.336 42.352C2.672 42.288 2.888 42.2 2.984 42.088C3.096 41.976 3.152 41.752 3.152 41.416V27.304C3.152 26.968 3.096 26.744 2.984 26.632C2.888 26.52 2.672 26.432 2.336 26.368L1.784 26.272C1.576 26.224 1.472 26.128 1.472 25.984C1.472 25.808 1.592 25.72 1.832 25.72H6.704C7.648 25.72 8.488 25.904 9.224 26.272C9.96 26.64 10.536 27.152 10.952 27.808C11.368 28.448 11.576 29.192 11.576 30.04C11.576 31.048 11.272 31.96 10.664 32.776C10.056 33.576 9.288 34.144 8.36 34.48C8.248 34.512 8.184 34.568 8.168 34.648C8.168 34.712 8.224 34.768 8.336 34.816C8.848 35.056 9.248 35.392 9.536 35.824C9.84 36.256 10.072 36.832 10.232 37.552L10.76 40C10.936 40.832 11.144 41.424 11.384 41.776C11.624 42.128 11.928 42.304 12.296 42.304C12.424 42.304 12.536 42.288 12.632 42.256C12.744 42.208 12.88 42.128 13.04 42.016C13.168 41.936 13.288 41.92 13.4 41.968C13.512 42 13.568 42.08 13.568 42.208C13.568 42.48 13.392 42.72 13.04 42.928C12.688 43.12 12.28 43.216 11.816 43.216ZM6.464 34.096C7.552 34.096 8.376 33.736 8.936 33.016C9.496 32.28 9.776 31.304 9.776 30.088C9.776 28.904 9.448 27.984 8.792 27.328C8.152 26.656 7.264 26.32 6.128 26.32C5.28 26.32 4.856 26.64 4.856 27.28V32.776C4.856 33.656 5.392 34.096 6.464 34.096Z" fill="black"/>
<path d="M17.6068 43.216C16.7908 43.216 16.0548 42.944 15.3988 42.4C14.7587 41.84 14.2467 41.08 13.8628 40.12C13.4788 39.16 13.2867 38.088 13.2867 36.904C13.2867 35.72 13.4788 34.656 13.8628 33.712C14.2467 32.768 14.7668 32.016 15.4228 31.456C16.0788 30.896 16.8068 30.616 17.6068 30.616C18.4228 30.616 19.1508 30.896 19.7908 31.456C20.4468 32.016 20.9667 32.768 21.3507 33.712C21.7347 34.656 21.9268 35.72 21.9268 36.904C21.9268 38.088 21.7347 39.16 21.3507 40.12C20.9827 41.08 20.4708 41.84 19.8148 42.4C19.1588 42.944 18.4228 43.216 17.6068 43.216ZM17.6068 42.616C19.2708 42.616 20.1028 40.712 20.1028 36.904C20.1028 33.112 19.2708 31.216 17.6068 31.216C15.9428 31.216 15.1108 33.112 15.1108 36.904C15.1108 40.712 15.9428 42.616 17.6068 42.616ZM15.3507 28.48C15.0147 28.48 14.7267 28.368 14.4867 28.144C14.2627 27.904 14.1508 27.608 14.1508 27.256C14.1508 26.904 14.2627 26.616 14.4867 26.392C14.7267 26.168 15.0147 26.056 15.3507 26.056C15.6868 26.056 15.9668 26.168 16.1908 26.392C16.4147 26.616 16.5268 26.904 16.5268 27.256C16.5268 27.608 16.4147 27.904 16.1908 28.144C15.9668 28.368 15.6868 28.48 15.3507 28.48ZM19.9108 28.48C19.5748 28.48 19.2868 28.368 19.0468 28.144C18.8228 27.904 18.7108 27.608 18.7108 27.256C18.7108 26.904 18.8228 26.616 19.0468 26.392C19.2868 26.168 19.5748 26.056 19.9108 26.056C20.2468 26.056 20.5267 26.168 20.7507 26.392C20.9748 26.616 21.0868 26.904 21.0868 27.256C21.0868 27.608 20.9748 27.904 20.7507 28.144C20.5267 28.368 20.2468 28.48 19.9108 28.48Z" fill="black"/>
<path d="M26.0596 43.216C25.4996 43.216 25.0356 43.024 24.6676 42.64C24.3156 42.24 24.1396 41.592 24.1396 40.696V31.72C24.1396 31.528 24.0436 31.432 23.8516 31.432H23.1556C22.8996 31.432 22.7716 31.336 22.7716 31.144C22.7716 31.016 22.8436 30.904 22.9876 30.808C23.5156 30.44 23.9396 30.048 24.2596 29.632C24.5796 29.2 24.8596 28.616 25.0996 27.88C25.2116 27.544 25.3476 27.376 25.5076 27.376C25.6836 27.376 25.7716 27.504 25.7716 27.76V30.424C25.7716 30.648 25.8836 30.76 26.1076 30.76H27.6676C27.9236 30.76 28.0516 30.872 28.0516 31.096C28.0516 31.32 27.9236 31.432 27.6676 31.432H26.1076C25.8836 31.432 25.7716 31.544 25.7716 31.768V40.72C25.7716 41.072 25.8276 41.352 25.9396 41.56C26.0516 41.752 26.2596 41.848 26.5636 41.848C26.8996 41.848 27.1716 41.68 27.3796 41.344C27.6036 41.008 27.7476 40.464 27.8116 39.712C27.8436 39.488 27.9476 39.376 28.1236 39.376C28.3156 39.376 28.4116 39.496 28.4116 39.736C28.3636 40.968 28.1076 41.856 27.6436 42.4C27.1956 42.944 26.6676 43.216 26.0596 43.216Z" fill="black"/>
<path d="M31.8487 43.216C31.2887 43.216 30.8247 43.024 30.4567 42.64C30.1047 42.24 29.9287 41.592 29.9287 40.696V31.72C29.9287 31.528 29.8327 31.432 29.6407 31.432H28.9447C28.6887 31.432 28.5607 31.336 28.5607 31.144C28.5607 31.016 28.6327 30.904 28.7767 30.808C29.3047 30.44 29.7287 30.048 30.0487 29.632C30.3687 29.2 30.6487 28.616 30.8887 27.88C31.0007 27.544 31.1367 27.376 31.2967 27.376C31.4727 27.376 31.5607 27.504 31.5607 27.76V30.424C31.5607 30.648 31.6727 30.76 31.8967 30.76H33.4567C33.7127 30.76 33.8407 30.872 33.8407 31.096C33.8407 31.32 33.7127 31.432 33.4567 31.432H31.8967C31.6727 31.432 31.5607 31.544 31.5607 31.768V40.72C31.5607 41.072 31.6167 41.352 31.7287 41.56C31.8407 41.752 32.0487 41.848 32.3527 41.848C32.6887 41.848 32.9607 41.68 33.1687 41.344C33.3927 41.008 33.5367 40.464 33.6007 39.712C33.6327 39.488 33.7367 39.376 33.9127 39.376C34.1047 39.376 34.2007 39.496 34.2007 39.736C34.1527 40.968 33.8967 41.856 33.4327 42.4C32.9847 42.944 32.4567 43.216 31.8487 43.216Z" fill="black"/>
<path d="M39.1396 43.216C38.3716 43.216 37.6836 42.96 37.0756 42.448C36.4676 41.936 35.9796 41.216 35.6116 40.288C35.2596 39.344 35.0836 38.256 35.0836 37.024C35.0836 35.76 35.2676 34.648 35.6356 33.688C36.0036 32.728 36.5076 31.976 37.1476 31.432C37.7876 30.888 38.4996 30.616 39.2836 30.616C40.2276 30.616 40.9876 31.008 41.5636 31.792C42.1556 32.56 42.4516 33.816 42.4516 35.56C42.4516 36.088 42.2516 36.352 41.8516 36.352H37.2916C36.9716 36.352 36.8116 36.536 36.8116 36.904C36.8116 38.6 37.0596 39.872 37.5556 40.72C38.0516 41.568 38.6836 41.992 39.4516 41.992C40.0596 41.992 40.5556 41.776 40.9396 41.344C41.3236 40.912 41.6356 40.184 41.8756 39.16C41.9236 38.984 42.0276 38.896 42.1876 38.896C42.3796 38.896 42.4516 39.056 42.4036 39.376C42.1476 40.8 41.7396 41.8 41.1796 42.376C40.6196 42.936 39.9396 43.216 39.1396 43.216ZM37.2196 35.752H39.6436C40.4116 35.752 40.7956 35.352 40.7956 34.552C40.7956 33.512 40.6676 32.696 40.4116 32.104C40.1556 31.512 39.7716 31.216 39.2596 31.216C38.6356 31.216 38.1076 31.576 37.6756 32.296C37.2596 33.016 36.9876 34.04 36.8596 35.368C36.8276 35.624 36.9476 35.752 37.2196 35.752Z" fill="black"/>
<path d="M46.7589 32.296C47.4149 31.176 48.2069 30.616 49.1349 30.616C49.6629 30.616 50.0549 30.776 50.3109 31.096C50.5669 31.4 50.6949 31.744 50.6949 32.128C50.6949 32.432 50.6149 32.68 50.4549 32.872C50.3109 33.064 50.0789 33.16 49.7589 33.16C49.5029 33.16 49.3109 33.104 49.1829 32.992C49.0709 32.864 48.9749 32.72 48.8949 32.56C48.8309 32.4 48.7509 32.264 48.6549 32.152C48.5589 32.024 48.3989 31.96 48.1749 31.96C47.8869 31.96 47.6149 32.136 47.3589 32.488C47.1029 32.824 46.8869 33.28 46.7109 33.856C46.5509 34.432 46.4709 35.088 46.4709 35.824V41.392C46.4709 41.728 46.5189 41.968 46.6149 42.112C46.7269 42.256 46.9509 42.344 47.2869 42.376L47.9349 42.448C48.1109 42.48 48.1989 42.568 48.1989 42.712C48.1989 42.904 48.0789 43 47.8389 43H43.7829C43.5429 43 43.4229 42.912 43.4229 42.736C43.4229 42.592 43.5269 42.496 43.7349 42.448L44.0229 42.4C44.3589 42.336 44.5749 42.24 44.6709 42.112C44.7829 41.968 44.8389 41.728 44.8389 41.392V33.328C44.8389 33.04 44.7909 32.848 44.6949 32.752C44.6149 32.64 44.4629 32.568 44.2389 32.536L43.7349 32.464C43.5269 32.448 43.4229 32.36 43.4229 32.2C43.4229 32.072 43.5509 31.984 43.8069 31.936C44.3029 31.856 44.6789 31.728 44.9349 31.552C45.2069 31.376 45.4869 31.16 45.7749 30.904C45.9189 30.76 46.0389 30.688 46.1349 30.688C46.2789 30.688 46.3509 30.784 46.3509 30.976V32.272C46.3509 32.384 46.3989 32.456 46.4949 32.488C46.5909 32.504 46.6789 32.44 46.7589 32.296Z" fill="black"/>
</svg>
